<svg xmlns="http://www.w3.org/2000/svg">
<defs>
    <symbol id="icon-calendar" viewBox="0 0 16 16" fill="none">
    <path d="M3.5 0C3.63261 0 3.75979 0.0526784 3.85355 0.146447C3.94732 0.240215 4 0.367392 4 0.5V1H12V0.5C12 0.367392 12.0527 0.240215 12.1464 0.146447C12.2402 0.0526784 12.3674 0 12.5 0C12.6326 0 12.7598 0.0526784 12.8536 0.146447C12.9473 0.240215 13 0.367392 13 0.5V1H14C14.5304 1 15.0391 1.21071 15.4142 1.58579C15.7893 1.96086 16 2.46957 16 3V14C16 14.5304 15.7893 15.0391 15.4142 15.4142C15.0391 15.7893 14.5304 16 14 16H2C1.46957 16 0.960859 15.7893 0.585786 15.4142C0.210714 15.0391 0 14.5304 0 14V3C0 2.46957 0.210714 1.96086 0.585786 1.58579C0.960859 1.21071 1.46957 1 2 1H3V0.5C3 0.367392 3.05268 0.240215 3.14645 0.146447C3.24021 0.0526784 3.36739 0 3.5 0ZM2 2C1.73478 2 1.48043 2.10536 1.29289 2.29289C1.10536 2.48043 1 2.73478 1 3V14C1 14.2652 1.10536 14.5196 1.29289 14.7071C1.48043 14.8946 1.73478 15 2 15H14C14.2652 15 14.5196 14.8946 14.7071 14.7071C14.8946 14.5196 15 14.2652 15 14V3C15 2.73478 14.8946 2.48043 14.7071 2.29289C14.5196 2.10536 14.2652 2 14 2H2Z" fill="#101828"></path>
    <path d="M2.5 4C2.5 3.86739 2.55268 3.74021 2.64645 3.64645C2.74021 3.55268 2.86739 3.5 3 3.5H13C13.1326 3.5 13.2598 3.55268 13.3536 3.64645C13.4473 3.74021 13.5 3.86739 13.5 4V5C13.5 5.13261 13.4473 5.25979 13.3536 5.35355C13.2598 5.44732 13.1326 5.5 13 5.5H3C2.86739 5.5 2.74021 5.44732 2.64645 5.35355C2.55268 5.25979 2.5 5.13261 2.5 5V4ZM11 7.5C11 7.36739 11.0527 7.24021 11.1464 7.14645C11.2402 7.05268 11.3674 7 11.5 7H12.5C12.6326 7 12.7598 7.05268 12.8536 7.14645C12.9473 7.24021 13 7.36739 13 7.5V8.5C13 8.63261 12.9473 8.75979 12.8536 8.85355C12.7598 8.94732 12.6326 9 12.5 9H11.5C11.3674 9 11.2402 8.94732 11.1464 8.85355C11.0527 8.75979 11 8.63261 11 8.5V7.5ZM8 7.5C8 7.36739 8.05268 7.24021 8.14645 7.14645C8.24021 7.05268 8.36739 7 8.5 7H9.5C9.63261 7 9.75979 7.05268 9.85355 7.14645C9.94732 7.24021 10 7.36739 10 7.5V8.5C10 8.63261 9.94732 8.75979 9.85355 8.85355C9.75979 8.94732 9.63261 9 9.5 9H8.5C8.36739 9 8.24021 8.94732 8.14645 8.85355C8.05268 8.75979 8 8.63261 8 8.5V7.5ZM3 10.5C3 10.3674 3.05268 10.2402 3.14645 10.1464C3.24021 10.0527 3.36739 10 3.5 10H4.5C4.63261 10 4.75979 10.0527 4.85355 10.1464C4.94732 10.2402 5 10.3674 5 10.5V11.5C5 11.6326 4.94732 11.7598 4.85355 11.8536C4.75979 11.9473 4.63261 12 4.5 12H3.5C3.36739 12 3.24021 11.9473 3.14645 11.8536C3.05268 11.7598 3 11.6326 3 11.5V10.5ZM6 10.5C6 10.3674 6.05268 10.2402 6.14645 10.1464C6.24021 10.0527 6.36739 10 6.5 10H7.5C7.63261 10 7.75979 10.0527 7.85355 10.1464C7.94732 10.2402 8 10.3674 8 10.5V11.5C8 11.6326 7.94732 11.7598 7.85355 11.8536C7.75979 11.9473 7.63261 12 7.5 12H6.5C6.36739 12 6.24021 11.9473 6.14645 11.8536C6.05268 11.7598 6 11.6326 6 11.5V10.5Z" fill="#101828"></path>
  </symbol>
  <symbol id="icon-arrow-down" viewBox="0 0 32 32">
    <path d="M2.294 8.294c0.093-0.093 0.203-0.167 0.325-0.217s0.252-0.076 0.383-0.076c0.132 0 0.262 0.026 0.383 0.076s0.232 0.124 0.325 0.217l11.292 11.294 11.292-11.294c0.093-0.093 0.203-0.167 0.325-0.217s0.252-0.076 0.383-0.076c0.131 0 0.262 0.026 0.383 0.076s0.232 0.124 0.325 0.217 0.167 0.203 0.217 0.325c0.050 0.121 0.076 0.252 0.076 0.383s-0.026 0.262-0.076 0.383c-0.050 0.121-0.124 0.232-0.217 0.325l-12 12c-0.093 0.093-0.203 0.167-0.325 0.217s-0.252 0.076-0.383 0.076c-0.132 0-0.262-0.026-0.383-0.076s-0.232-0.124-0.325-0.217l-12-12c-0.093-0.093-0.167-0.203-0.217-0.325s-0.076-0.252-0.076-0.383c0-0.132 0.026-0.262 0.076-0.383s0.124-0.232 0.217-0.325z"></path>
</symbol>
    <symbol id="icon-arrow-up" viewBox="0 0 32 32">
    <path d="M14.293 8.294c0.093-0.093 0.203-0.167 0.325-0.217s0.252-0.076 0.383-0.076c0.132 0 0.262 0.026 0.383 0.076s0.232 0.124 0.325 0.217l12 12c0.188 0.188 0.293 0.442 0.293 0.708s-0.106 0.52-0.293 0.708c-0.188 0.188-0.442 0.293-0.708 0.293s-0.52-0.105-0.708-0.293l-11.292-11.294-11.292 11.294c-0.188 0.188-0.442 0.293-0.708 0.293s-0.52-0.105-0.708-0.293c-0.188-0.188-0.293-0.442-0.293-0.708s0.105-0.52 0.293-0.708l12-12z"></path>
    </symbol>
        <symbol id="icon-heart" viewBox="0 0 24 24">
    <path d="M12 21s-1-.45-2-.88C5 16 2 12 2 8.5 2 5.42 4.42 3 7.5 3 9.24 3 10.91 3.81 12 5.08 13.09 3.81 14.76 3 16.5 3 19.58 3 22 5.42 22 8.5c0 3.5-3 7.5-8 11.62-1 .43-2 .88-2 .88z"
          fill="currentColor" stroke="currentColor" stroke-width="2"/>
  </symbol>
    <symbol id="icon-check-circle" viewBox="0 0 32 32">
    <path d="M16 30c-3.713 0-7.274-1.475-9.899-4.101s-4.101-6.186-4.101-9.899 1.475-7.274 4.101-9.899c2.626-2.626 6.186-4.101 9.899-4.101s7.274 1.475 9.899 4.101c2.626 2.626 4.101 6.186 4.101 9.899s-1.475 7.274-4.101 9.899c-2.625 2.626-6.186 4.101-9.899 4.101zM16 32c4.243 0 8.313-1.686 11.314-4.686s4.686-7.070 4.686-11.314c0-4.243-1.686-8.313-4.686-11.314s-7.070-4.686-11.314-4.686c-4.243 0-8.313 1.686-11.314 4.686s-4.686 7.070-4.686 11.314c0 4.243 1.686 8.313 4.686 11.314s7.070 4.686 11.314 4.686z"></path>
    <path d="M21.94 9.94l-0.040 0.044-6.946 8.85-4.186-4.188c-0.284-0.265-0.66-0.409-1.049-0.402s-0.759 0.164-1.034 0.439c-0.275 0.275-0.432 0.646-0.439 1.034s0.137 0.765 0.402 1.049l5.292 5.294c0.143 0.142 0.312 0.254 0.499 0.33s0.387 0.112 0.588 0.108c0.201-0.004 0.4-0.048 0.584-0.13s0.349-0.2 0.487-0.348l7.984-9.98c0.272-0.285 0.42-0.666 0.414-1.060s-0.168-0.77-0.45-1.046c-0.282-0.276-0.66-0.43-1.054-0.429s-0.772 0.157-1.052 0.435z"></path>
    </symbol>
    <symbol id="icon-location" viewBox="0 0 32 32">
    <path d="M23.061 16.762c-0.982 1.991-2.314 3.975-3.675 5.756-1.293 1.678-2.673 3.287-4.136 4.819-1.463-1.532-2.844-3.141-4.136-4.819-1.361-1.781-2.692-3.765-3.675-5.756-0.994-2.012-1.564-3.896-1.564-5.512 0-2.486 0.988-4.871 2.746-6.629s4.143-2.746 6.629-2.746c2.486 0 4.871 0.988 6.629 2.746s2.746 4.143 2.746 6.629c0 1.616-0.572 3.501-1.564 5.512zM15.25 30c0 0 11.25-10.661 11.25-18.75 0-2.984-1.185-5.845-3.295-7.955s-4.971-3.295-7.955-3.295c-2.984 0-5.845 1.185-7.955 3.295s-3.295 4.971-3.295 7.955c0 8.089 11.25 18.75 11.25 18.75z"></path>
    <path d="M15.25 15c-0.995 0-1.948-0.395-2.652-1.098s-1.098-1.657-1.098-2.652c0-0.995 0.395-1.948 1.098-2.652s1.657-1.098 2.652-1.098c0.995 0 1.948 0.395 2.652 1.098s1.098 1.657 1.098 2.652c0 0.995-0.395 1.948-1.098 2.652s-1.657 1.098-2.652 1.098zM15.25 16.875c1.492 0 2.923-0.593 3.977-1.648s1.648-2.486 1.648-3.977c0-1.492-0.593-2.923-1.648-3.977s-2.486-1.648-3.977-1.648c-1.492 0-2.923 0.593-3.977 1.648s-1.648 2.486-1.648 3.977c0 1.492 0.593 2.923 1.648 3.977s2.486 1.648 3.977 1.648z"></path>
    </symbol>
<symbol id="icon-car" viewBox="0 0 16.000019073486328 12.000000953674316" fill="none">
    <path d="M3.999 7C3.999 7.26522 3.89364 7.51957 3.70611 7.70711C3.51857 7.89464 3.26422 8 2.999 8C2.73378 8 2.47943 7.89464 2.29189 7.70711C2.10436 7.51957 1.999 7.26522 1.999 7C1.999 6.73478 2.10436 6.48043 2.29189 6.29289C2.47943 6.10536 2.73378 6 2.999 6C3.26422 6 3.51857 6.10536 3.70611 6.29289C3.89364 6.48043 3.999 6.73478 3.999 7ZM13.999 7C13.999 7.26522 13.8936 7.51957 13.7061 7.70711C13.5186 7.89464 13.2642 8 12.999 8C12.7338 8 12.4794 7.89464 12.2919 7.70711C12.1044 7.51957 11.999 7.26522 11.999 7C11.999 6.73478 12.1044 6.48043 12.2919 6.29289C12.4794 6.10536 12.7338 6 12.999 6C13.2642 6 13.5186 6.10536 13.7061 6.29289C13.8936 6.48043 13.999 6.73478 13.999 7ZM5.999 6C5.73378 6 5.47943 6.10536 5.29189 6.29289C5.10436 6.48043 4.999 6.73478 4.999 7C4.999 7.26522 5.10436 7.51957 5.29189 7.70711C5.47943 7.89464 5.73378 8 5.999 8H9.999C10.2642 8 10.5186 7.89464 10.7061 7.70711C10.8936 7.51957 10.999 7.26522 10.999 7C10.999 6.73478 10.8936 6.48043 10.7061 6.29289C10.5186 6.10536 10.2642 6 9.999 6H5.999ZM4.861 2.276L3.905 4.19C3.86591 4.27065 3.84877 4.36018 3.8553 4.44957C3.86183 4.53896 3.8918 4.62505 3.94219 4.69917C3.99258 4.77329 4.06162 4.83282 4.14234 4.87176C4.22306 4.9107 4.31262 4.92769 4.402 4.921C5.312 4.848 6.752 4.751 7.999 4.751C9.246 4.751 10.687 4.848 11.596 4.921C11.6854 4.92769 11.7749 4.9107 11.8557 4.87176C11.9364 4.83282 12.0054 4.77329 12.0558 4.69917C12.1062 4.62505 12.1362 4.53896 12.1427 4.44957C12.1492 4.36018 12.1321 4.27065 12.093 4.19L11.137 2.277C11.0956 2.19387 11.0318 2.12391 10.9529 2.07499C10.8739 2.02606 10.7829 2.0001 10.69 2H5.308C5.21522 2 5.12427 2.02582 5.04533 2.07456C4.96639 2.12331 4.90257 2.19305 4.861 2.276Z" fill="#101828"></path>
    <path d="M2.519 1.515C2.7119 1.065 3.0327 0.681548 3.44157 0.412225C3.85044 0.142902 4.3294 -0.00043446 4.819 9.89209e-07H11.181C12.181 9.89209e-07 13.085 0.596001 13.479 1.515L14.271 3.363C14.346 3.538 14.481 3.682 14.651 3.767C15.151 4.017 15.506 4.482 15.616 5.029L15.951 6.708C15.9843 6.86933 16.0007 7.03267 16 7.198V7.611C16 8.425 15.61 9.154 15 9.608V11.5C15 11.6326 14.9473 11.7598 14.8536 11.8536C14.7598 11.9473 14.6326 12 14.5 12H12.5C12.3674 12 12.2402 11.9473 12.1464 11.8536C12.0527 11.7598 12 11.6326 12 11.5V10.162C10.708 10.21 9.255 10.25 8 10.25C6.745 10.25 5.292 10.21 4 10.162V11.5C4 11.6326 3.94732 11.7598 3.85355 11.8536C3.75979 11.9473 3.63261 12 3.5 12H1.5C1.36739 12 1.24021 11.9473 1.14645 11.8536C1.05268 11.7598 1 11.6326 1 11.5V9.608C0.39 9.154 0 8.425 0 7.611V7.198C0.00016783 7.03345 0.0165808 6.86932 0.049 6.708L0.384 5.028C0.494 4.482 0.849 4.016 1.348 3.767C1.51916 3.68215 1.65431 3.53884 1.729 3.363L2.521 1.515H2.519ZM4.819 1C4.5253 1.00002 4.23806 1.08626 3.99292 1.24803C3.74778 1.4098 3.55552 1.63997 3.44 1.91L2.648 3.757C2.48002 4.15006 2.17765 4.47051 1.795 4.661C1.68479 4.71563 1.58866 4.79493 1.51409 4.89275C1.43951 4.99056 1.38849 5.10426 1.365 5.225L1.029 6.904C1.00935 7.00077 0.999298 7.09925 0.999 7.198V7.611C0.999 8.407 1.619 9.059 2.407 9.095C3.962 9.165 6.193 9.25 7.999 9.25C9.805 9.25 12.036 9.166 13.591 9.095C13.9716 9.07647 14.3304 8.91185 14.5927 8.63542C14.8549 8.35899 15.0005 7.99205 14.999 7.611V7.198C14.999 7.09933 14.989 7.00133 14.969 6.904L14.634 5.224C14.6104 5.10344 14.5593 4.98994 14.4847 4.89231C14.4101 4.79468 14.3141 4.71553 14.204 4.661C13.8213 4.47051 13.519 4.15006 13.351 3.757L12.559 1.909C12.4433 1.639 12.2508 1.40893 12.0055 1.24734C11.7601 1.08574 11.4728 0.99974 11.179 1H4.819Z" fill="#101828"></path>
  </symbol>
    <symbol id="icon-fuel" viewBox="0 0 16.000001907348633 16" fill="none">
    <path d="M3 2.5C3 2.36739 3.05268 2.24021 3.14645 2.14645C3.24021 2.05268 3.36739 2 3.5 2H8.5C8.63261 2 8.75979 2.05268 8.85355 2.14645C8.94732 2.24021 9 2.36739 9 2.5V7.5C9 7.63261 8.94732 7.75979 8.85355 7.85355C8.75979 7.94732 8.63261 8 8.5 8H3.5C3.36739 8 3.24021 7.94732 3.14645 7.85355C3.05268 7.75979 3 7.63261 3 7.5V2.5Z" fill="#101828"></path>
    <path d="M1 2C1 1.46957 1.21071 0.960859 1.58579 0.585786C1.96086 0.210714 2.46957 0 3 0L9 0C9.53043 0 10.0391 0.210714 10.4142 0.585786C10.7893 0.960859 11 1.46957 11 2V10C11.5304 10 12.0391 10.2107 12.4142 10.5858C12.7893 10.9609 13 11.4696 13 12V12.5C13 12.6326 13.0527 12.7598 13.1464 12.8536C13.2402 12.9473 13.3674 13 13.5 13C13.6326 13 13.7598 12.9473 13.8536 12.8536C13.9473 12.7598 14 12.6326 14 12.5V8H13.5C13.3674 8 13.2402 7.94732 13.1464 7.85355C13.0527 7.75979 13 7.63261 13 7.5V4.375C13 4.24239 13.0527 4.11521 13.1464 4.02145C13.2402 3.92768 13.3674 3.875 13.5 3.875H14.995C14.984 3.399 14.942 2.981 14.794 2.653C14.7148 2.46228 14.5767 2.30183 14.4 2.195C14.216 2.085 13.936 2 13.5 2C13.3674 2 13.2402 1.94732 13.1464 1.85355C13.0527 1.75979 13 1.63261 13 1.5C13 1.36739 13.0527 1.24021 13.1464 1.14645C13.2402 1.05268 13.3674 1 13.5 1C14.064 0.998667 14.5347 1.11067 14.912 1.336C15.295 1.564 15.546 1.887 15.706 2.243C16.001 2.898 16 3.708 16 4.324V7.499C16.0001 7.56474 15.9873 7.62987 15.9622 7.69065C15.9372 7.75143 15.9003 7.80666 15.8539 7.8532C15.8075 7.89974 15.7523 7.93665 15.6916 7.96184C15.6308 7.98703 15.5657 8 15.5 8H15V12.5C15 12.8978 14.842 13.2794 14.5607 13.5607C14.2794 13.842 13.8978 14 13.5 14C13.1022 14 12.7206 13.842 12.4393 13.5607C12.158 13.2794 12 12.8978 12 12.5V12C12 11.7348 11.8946 11.4804 11.7071 11.2929C11.5196 11.1054 11.2652 11 11 11V15H11.5C11.6326 15 11.7598 15.0527 11.8536 15.1464C11.9473 15.2402 12 15.3674 12 15.5C12 15.6326 11.9473 15.7598 11.8536 15.8536C11.7598 15.9473 11.6326 16 11.5 16H0.5C0.367392 16 0.240215 15.9473 0.146447 15.8536C0.0526784 15.7598 0 15.6326 0 15.5C0 15.3674 0.0526784 15.2402 0.146447 15.1464C0.240215 15.0527 0.367392 15 0.5 15H1V2ZM10 2C10 1.73478 9.89464 1.48043 9.70711 1.29289C9.51957 1.10536 9.26522 1 9 1H3C2.73478 1 2.48043 1.10536 2.29289 1.29289C2.10536 1.48043 2 1.73478 2 2V15H10V2Z" fill="#101828"></path>
  </symbol>
  <symbol id="icon-gear" viewBox="0 0 15.99899959564209 15.99899959564209" fill="none">
    <path d="M7.9995 4.75351C7.57323 4.75351 7.15113 4.83747 6.75731 5.0006C6.36349 5.16372 6.00565 5.40282 5.70423 5.70424C5.40281 6.00566 5.16371 6.3635 5.00059 6.75732C4.83746 7.15114 4.7535 7.57324 4.7535 7.99951C4.7535 8.42578 4.83746 8.84788 5.00059 9.2417C5.16371 9.63552 5.40281 9.99336 5.70423 10.2948C6.00565 10.5962 6.36349 10.8353 6.75731 10.9984C7.15113 11.1615 7.57323 11.2455 7.9995 11.2455C8.86039 11.2455 9.68603 10.9035 10.2948 10.2948C10.9035 9.68604 11.2455 8.8604 11.2455 7.99951C11.2455 7.13862 10.9035 6.31298 10.2948 5.70424C9.68603 5.0955 8.86039 4.75351 7.9995 4.75351ZM5.7535 7.99951C5.7535 7.40383 5.99013 6.83255 6.41134 6.41135C6.83254 5.99014 7.40382 5.75351 7.9995 5.75351C8.59518 5.75351 9.16645 5.99014 9.58766 6.41135C10.0089 6.83255 10.2455 7.40383 10.2455 7.99951C10.2455 8.59519 10.0089 9.16646 9.58766 9.58767C9.16645 10.0089 8.59518 10.2455 7.9995 10.2455C7.40382 10.2455 6.83254 10.0089 6.41134 9.58767C5.99013 9.16646 5.7535 8.59519 5.7535 7.99951Z" fill="#101828"></path>
    <path d="M9.7955 1.3425C9.2685 -0.4475 6.7305 -0.4475 6.2035 1.3425L6.1095 1.6615C6.0727 1.78645 6.0084 1.90158 5.92132 1.99846C5.83424 2.09533 5.72658 2.17149 5.60624 2.22135C5.4859 2.27121 5.35593 2.29351 5.22585 2.28662C5.09578 2.27972 4.96889 2.24381 4.8545 2.1815L4.5625 2.0215C2.9225 1.1295 1.1295 2.9235 2.0225 4.5625L2.1815 4.8545C2.24381 4.96889 2.27972 5.09578 2.28662 5.22585C2.29351 5.35593 2.27121 5.4859 2.22135 5.60624C2.17149 5.72658 2.09533 5.83424 1.99846 5.92132C1.90158 6.0084 1.78645 6.0727 1.6615 6.1095L1.3425 6.2035C-0.4475 6.7305 -0.4475 9.2685 1.3425 9.7955L1.6615 9.8895C1.78645 9.9263 1.90158 9.9906 1.99846 10.0777C2.09533 10.1648 2.17149 10.2724 2.22135 10.3928C2.27121 10.5131 2.29351 10.6431 2.28662 10.7731C2.27972 10.9032 2.24381 11.0301 2.1815 11.1445L2.0215 11.4365C1.1295 13.0765 2.9225 14.8705 4.5625 13.9765L4.8545 13.8175C4.96889 13.7552 5.09578 13.7193 5.22585 13.7124C5.35593 13.7055 5.4859 13.7278 5.60624 13.7776C5.72658 13.8275 5.83424 13.9037 5.92132 14.0005C6.0084 14.0974 6.0727 14.2125 6.1095 14.3375L6.2035 14.6565C6.7305 16.4465 9.2685 16.4465 9.7955 14.6565L9.8895 14.3375C9.9263 14.2125 9.9906 14.0974 10.0777 14.0005C10.1648 13.9037 10.2724 13.8275 10.3928 13.7776C10.5131 13.7278 10.6431 13.7055 10.7731 13.7124C10.9032 13.7193 11.0301 13.7552 11.1445 13.8175L11.4365 13.9775C13.0765 14.8705 14.8705 13.0755 13.9765 11.4365L13.8175 11.1445C13.7552 11.0301 13.7193 10.9032 13.7124 10.7731C13.7055 10.6431 13.7278 10.5131 13.7776 10.3928C13.8275 10.2724 13.9037 10.1648 14.0005 10.0777C14.0974 9.9906 14.2125 9.9263 14.3375 9.8895L14.6565 9.7955C16.4465 9.2685 16.4465 6.7305 14.6565 6.2035L14.3375 6.1095C14.2125 6.0727 14.0974 6.0084 14.0005 5.92132C13.9037 5.83424 13.8275 5.72658 13.7776 5.60624C13.7278 5.4859 13.7055 5.35593 13.7124 5.22585C13.7193 5.09578 13.7552 4.96889 13.8175 4.8545L13.9775 4.5625C14.8705 2.9225 13.0755 1.1295 11.4365 2.0225L11.1445 2.1815C11.0301 2.24381 10.9032 2.27972 10.7731 2.28662C10.6431 2.29351 10.5131 2.27121 10.3928 2.22135C10.2724 2.17149 10.1648 2.09533 10.0777 1.99846C9.9906 1.90158 9.9263 1.78645 9.8895 1.6615L9.7955 1.3425ZM7.1625 1.6255C7.4085 0.7905 8.5905 0.7905 8.8365 1.6255L8.9305 1.9445C9.00952 2.21259 9.14754 2.45959 9.33443 2.6674C9.52132 2.87521 9.75235 3.03856 10.0106 3.14548C10.2688 3.2524 10.5477 3.30017 10.8268 3.28529C11.1059 3.27041 11.3781 3.19326 11.6235 3.0595L11.9145 2.8995C12.6785 2.4845 13.5145 3.3195 13.0985 4.0845L12.9395 4.3765C12.8059 4.62193 12.729 4.89413 12.7143 5.17316C12.6995 5.45218 12.7474 5.73097 12.8544 5.98908C12.9615 6.2472 13.1249 6.4781 13.3327 6.66488C13.5405 6.85165 13.7875 6.98956 14.0555 7.0685L14.3735 7.1625C15.2085 7.4085 15.2085 8.5905 14.3735 8.8365L14.0545 8.9305C13.7864 9.00952 13.5394 9.14754 13.3316 9.33443C13.1238 9.52132 12.9604 9.75235 12.8535 10.0106C12.7466 10.2688 12.6988 10.5477 12.7137 10.8268C12.7286 11.1059 12.8057 11.3781 12.9395 11.6235L13.0995 11.9145C13.5145 12.6785 12.6795 13.5145 11.9145 13.0985L11.6235 12.9395C11.378 12.8057 11.1057 12.7286 10.8266 12.7138C10.5474 12.699 10.2685 12.7469 10.0103 12.8539C9.75204 12.9609 9.52102 13.1244 9.33418 13.3323C9.14734 13.5402 9.00941 13.7873 8.9305 14.0555L8.8365 14.3735C8.5905 15.2085 7.4085 15.2085 7.1625 14.3735L7.0685 14.0545C6.98944 13.7866 6.85145 13.5397 6.66463 13.332C6.47781 13.1243 6.24689 12.961 5.98879 12.8541C5.73069 12.7472 5.45194 12.6994 5.17297 12.7141C4.894 12.7289 4.62186 12.8059 4.3765 12.9395L4.0845 13.0995C3.3205 13.5145 2.4845 12.6795 2.9005 11.9145L3.0595 11.6235C3.19345 11.3781 3.27075 11.1057 3.28573 10.8265C3.3007 10.5473 3.25297 10.2683 3.14604 10.0099C3.03911 9.75158 2.87569 9.52044 2.66778 9.33348C2.45986 9.14652 2.21272 9.00849 1.9445 8.9295L1.6255 8.8355C0.7905 8.5895 0.7905 7.4075 1.6255 7.1615L1.9445 7.0675C2.21231 6.98841 2.45904 6.85044 2.66664 6.66369C2.87425 6.47694 3.03746 6.24613 3.14435 5.98816C3.25124 5.73018 3.2991 5.45157 3.28442 5.17272C3.26973 4.89387 3.19289 4.62182 3.0595 4.3765L2.8995 4.0845C2.4845 3.3205 3.3195 2.4845 4.0845 2.9005L4.3765 3.0595C4.62186 3.19308 4.894 3.27007 5.17297 3.28485C5.45194 3.29963 5.73069 3.25182 5.98879 3.14492C6.24689 3.03801 6.47781 2.87473 6.66463 2.66702C6.85145 2.45931 6.98944 2.21245 7.0685 1.9445L7.1625 1.6255Z" fill="#101828"></path>
  </symbol>
  <symbol id="icon-logo" viewBox="0 0 208 32">
<path fill="#3470ff" style="fill: var(--color1, #3470ff)" d="M202.142 15.291c-1.366 0-2.614 0.079-3.744 0.236s-2.351 0.473-3.665 0.946v15.054h-6.857v-22.384h5.084l1.025 2.64c1.366-1.103 2.706-1.892 4.020-2.365s2.694-0.709 4.138-0.709v6.581z"></path>
<path fill="#3470ff" style="fill: var(--color1, #3470ff)" d="M184.597 31.291c-0.841 0.184-1.59 0.315-2.246 0.394-0.63 0.079-1.379 0.118-2.246 0.118-2.522 0-4.177-0.814-4.966-2.443-1.103 0.814-2.207 1.432-3.31 1.852s-2.312 0.631-3.626 0.631c-1.182 0-2.246-0.25-3.192-0.749s-1.682-1.169-2.207-2.010c-0.525-0.841-0.788-1.76-0.788-2.759 0-1.682 0.42-3.008 1.261-3.98 0.867-0.998 2.023-1.787 3.468-2.365 1.445-0.604 3.639-1.327 6.581-2.167l1.182-0.355v-0.158c0-2.417-1.103-3.626-3.31-3.626-1.077 0-2.233 0.236-3.468 0.709s-2.654 1.235-4.256 2.286l-1.301-4.729c1.787-1.025 3.599-1.826 5.438-2.404 1.865-0.578 3.836-0.867 5.911-0.867 2.522 0 4.453 0.683 5.793 2.049 1.366 1.366 2.049 3.704 2.049 7.015v7.488c0 0.578 0.118 0.998 0.355 1.261 0.237 0.236 0.618 0.355 1.143 0.355 0.499 0 0.998-0.066 1.498-0.197l0.236 4.65zM168.873 25.419c0 0.525 0.131 0.906 0.394 1.143 0.289 0.236 0.736 0.355 1.34 0.355 1.103 0 2.404-0.473 3.901-1.419v-4.177l-0.591 0.197c-1.971 0.709-3.31 1.34-4.020 1.892-0.683 0.526-1.025 1.195-1.025 2.010z"></path>
<path fill="#3470ff" style="fill: var(--color1, #3470ff)" d="M150.364 32c-3.258 0-6.016-0.631-8.276-1.892-2.26-1.287-3.954-2.982-5.084-5.084-1.103-2.128-1.655-4.44-1.655-6.936 0-2.47 0.578-4.755 1.734-6.857 1.182-2.102 2.929-3.783 5.241-5.044s5.097-1.892 8.355-1.892c3.048 0 5.728 0.591 8.040 1.773l-1.419 4.966c-0.972-0.499-1.984-0.893-3.034-1.182-1.051-0.315-2.246-0.473-3.586-0.473-1.708 0-3.192 0.394-4.453 1.182-1.235 0.762-2.181 1.813-2.837 3.153-0.631 1.314-0.946 2.785-0.946 4.414 0 2.575 0.683 4.69 2.049 6.345 1.366 1.629 3.324 2.443 5.872 2.443 2.181 0 4.532-0.539 7.054-1.616l1.34 4.847c-1.077 0.552-2.365 0.998-3.862 1.34s-3.008 0.512-4.532 0.512z"></path>
<path fill="#101828" style="fill: var(--color2, #101828)" d="M123.567 0h6.857v31.527h-6.857v-31.527z"></path>
<path fill="#101828" style="fill: var(--color2, #101828)" d="M120.288 31.291c-0.841 0.184-1.589 0.315-2.246 0.394-0.631 0.079-1.379 0.118-2.246 0.118-2.522 0-4.177-0.814-4.965-2.443-1.104 0.814-2.207 1.432-3.31 1.852s-2.312 0.631-3.626 0.631c-1.182 0-2.246-0.25-3.192-0.749s-1.681-1.169-2.207-2.010c-0.526-0.841-0.788-1.76-0.788-2.759 0-1.682 0.42-3.008 1.261-3.98 0.867-0.998 2.023-1.787 3.468-2.365 1.445-0.604 3.639-1.327 6.581-2.167l1.182-0.355v-0.158c0-2.417-1.103-3.626-3.31-3.626-1.077 0-2.233 0.236-3.468 0.709s-2.653 1.235-4.256 2.286l-1.3-4.729c1.787-1.025 3.599-1.826 5.438-2.404 1.865-0.578 3.836-0.867 5.911-0.867 2.522 0 4.453 0.683 5.793 2.049 1.366 1.366 2.049 3.704 2.049 7.015v7.488c0 0.578 0.118 0.998 0.355 1.261 0.236 0.236 0.617 0.355 1.143 0.355 0.499 0 0.998-0.066 1.498-0.197l0.236 4.65zM104.564 25.419c0 0.525 0.131 0.906 0.394 1.143 0.289 0.236 0.736 0.355 1.34 0.355 1.104 0 2.404-0.473 3.902-1.419v-4.177l-0.591 0.197c-1.97 0.709-3.31 1.34-4.020 1.892-0.683 0.526-1.025 1.195-1.025 2.010z"></path>
<path fill="#101828" style="fill: var(--color2, #101828)" d="M95.248 30.069c-0.788 0.552-1.734 0.985-2.838 1.301-1.077 0.289-2.128 0.433-3.153 0.433-2.785 0-4.86-0.604-6.227-1.813-1.366-1.235-2.049-2.995-2.049-5.281v-10.719h-3.35v-2.877l4.217-1.695 1.892-6.030h4.098v5.754h6.305v4.847h-6.305v9.064c0 1.393 0.223 2.378 0.67 2.956s1.117 0.867 2.010 0.867c1.156 0 2.378-0.342 3.665-1.025l1.064 4.217z"></path>
<path fill="#101828" style="fill: var(--color2, #101828)" d="M66.381 8.67c2.916 0 4.926 0.775 6.030 2.325 1.13 1.55 1.695 3.783 1.695 6.7v13.833h-6.857v-12.966c0-1.839-0.223-3.113-0.67-3.823-0.42-0.709-1.248-1.064-2.483-1.064-1.34 0-2.706 0.447-4.098 1.34v16.512h-6.857v-22.384h5.084l0.709 1.852c2.575-1.55 5.058-2.325 7.448-2.325z"></path>
<path fill="#101828" style="fill: var(--color2, #101828)" d="M34.057 21.596c0.131 1.865 0.591 3.245 1.379 4.138s1.997 1.34 3.626 1.34c1.209 0 2.325-0.21 3.35-0.63 1.051-0.447 2.246-1.103 3.586-1.97l1.852 4.335c-1.392 1.13-2.772 1.944-4.138 2.443s-2.929 0.749-4.69 0.749c-2.601 0-4.782-0.499-6.542-1.498-1.76-1.025-3.074-2.404-3.941-4.138-0.841-1.76-1.261-3.757-1.261-5.99 0-3.547 0.998-6.384 2.995-8.512s4.913-3.192 8.749-3.192c3.048 0 5.36 0.828 6.936 2.483 1.603 1.629 2.417 3.954 2.443 6.975 0 1.182-0.171 2.338-0.512 3.468h-13.833zM41.741 17.143c0.026-0.158 0.039-0.368 0.039-0.631-0.026-1.077-0.315-1.892-0.867-2.443-0.552-0.578-1.314-0.867-2.286-0.867-2.312 0-3.757 1.314-4.335 3.941h7.448z"></path>
<path fill="#101828" style="fill: var(--color2, #101828)" d="M10.877 21.675h-3.783v9.852h-7.094v-26.798h10.719c3.836 0 6.634 0.657 8.394 1.97 1.76 1.287 2.64 3.323 2.64 6.108 0 3.626-1.327 6.056-3.98 7.291l7.527 11.429h-8.197l-6.227-9.852zM7.094 16.749h3.626c1.392 0 2.391-0.289 2.995-0.867 0.631-0.578 0.946-1.471 0.946-2.68 0-1.261-0.302-2.168-0.906-2.719s-1.616-0.828-3.034-0.828h-3.626v7.094z"></path>
</symbol>
  </defs>
</svg>